<svg width="45" height="43" viewBox="0 0 45 43" fill="none" xmlns="http://www.w3.org/2000/svg">
<path d="M28.1941 0H16.6533C16.2676 0 15.9586 0.328841 15.9502 0.737579C15.7171 12.2269 10.0467 23.1316 0.286848 30.8556C-0.0230076 31.1006 -0.0936014 31.5613 0.132934 31.8932L6.88535 41.7906C7.11504 42.1274 7.56257 42.2034 7.87769 41.956C13.9802 37.158 18.8889 31.37 22.4237 24.9546C25.9585 31.37 30.8674 37.158 36.97 41.956C37.2847 42.2034 37.7324 42.1274 37.9623 41.7906L44.7148 31.8932C44.9409 31.5613 44.8704 31.1006 44.5608 30.8556C34.8007 23.1316 29.1303 12.2269 28.8975 0.737579C28.8891 0.328841 28.5798 0 28.1941 0Z" fill="black"/>
</svg>
