<svg width="128" height="128" viewBox="0 0 128 128" fill="none" xmlns="http://www.w3.org/2000/svg">
<path d="M45.5958 30.7084L34.5242 24.2735L64.6397 6.66681L94.8439 24.2735L83.7719 30.7084L64.6397 19.626L45.5958 30.7084ZM102.727 41.7907V54.7501L113.799 48.3152V35.3559L102.727 28.8316L91.6551 35.2666L102.727 41.7907ZM53.5677 35.3559L64.6397 41.7907L75.7117 35.3559L64.6397 28.8316L53.5677 35.3559ZM94.8439 46.4381L83.7719 40.0032L64.6397 51.0858L45.5958 40.0032L34.5242 46.4381V59.3975L53.5677 70.4797V92.6445L64.6397 99.0794L75.7117 92.6445V70.4797L94.8439 59.3975V46.4381ZM102.727 86.2096L83.6835 97.2922V110.251L113.888 92.6445V57.5207L102.727 64.0448V86.2096ZM83.6835 88.0864L94.7552 81.6515V68.6029L83.6835 75.0378V88.0864ZM53.5677 101.94V114.899L64.6397 121.334L75.7117 114.899V101.94L64.6397 108.374L53.5677 101.94ZM15.3918 48.3152L26.4637 54.7501V41.7907L37.5357 35.3559L26.5523 28.8316L15.4803 35.2666V48.3152H15.3918ZM26.5523 64.0448L15.4803 57.6099V92.7341L45.6845 110.34V97.3815L26.5523 86.2096V64.0448ZM45.5958 75.1274L34.5242 68.6925V81.6515L45.5958 88.0864V75.1274Z" fill="#F1BA0D"/>
</svg>
