<svg width="128" height="128" viewBox="0 0 128 128" fill="none" xmlns="http://www.w3.org/2000/svg">
<path fill-rule="evenodd" clip-rule="evenodd" d="M10.0255 85.3053C10.0241 85.4147 10.0234 85.5242 10.0234 85.6339C10.0234 99.0605 20.9078 109.945 34.3344 109.945C47.761 109.945 58.6451 99.0605 58.6451 85.6339C58.6451 85.5242 58.6445 85.4147 58.6432 85.3053H47.1424C47.1453 85.4144 47.1466 85.5238 47.1466 85.6339C47.1466 92.7101 41.4102 98.4464 34.3341 98.4464C27.258 98.4464 21.5216 92.7101 21.5216 85.6339C21.5216 85.5238 21.523 85.4144 21.5257 85.3053H10.0255ZM34.3344 18.286C50.1197 18.286 62.9162 31.0824 62.9162 46.8678C62.9162 62.6531 50.1197 75.4496 34.3344 75.4496C18.5492 75.4496 5.75275 62.6531 5.75275 46.8678C5.75275 31.0824 18.5492 18.286 34.3344 18.286ZM34.3344 29.7843C43.7693 29.7843 51.4179 37.4326 51.4179 46.8675C51.4179 56.3024 43.7693 63.951 34.3344 63.951C24.8996 63.951 17.2511 56.3024 17.2511 46.8675C17.2511 37.4326 24.8996 29.7843 34.3344 29.7843ZM36.3053 41.2906C38.6023 42.1024 40.248 44.2928 40.248 46.8678C40.248 50.1338 37.6003 52.7811 34.3344 52.7811C31.0686 52.7811 28.421 50.1338 28.421 46.8678C28.421 44.2931 30.0665 42.1027 32.3632 41.2909V37.3405H36.3053V41.2906ZM72.7885 54.2566C70.8928 50.7952 69.8151 46.8218 69.8151 42.5968C69.8151 29.1703 80.6995 18.286 94.1261 18.286C107.553 18.286 118.437 29.1703 118.437 42.5968C118.437 46.8221 117.359 50.7952 115.463 54.257C112.462 51.8912 109.058 50.0131 105.372 48.7424C106.371 46.9178 106.939 44.8237 106.939 42.5968C106.939 35.5206 101.202 29.7844 94.1261 29.7844C87.0499 29.7844 81.3136 35.5206 81.3136 42.5968C81.3136 44.8237 81.8816 46.9178 82.8807 48.7421C79.1939 50.0128 75.7901 51.8909 72.7885 54.2566ZM94.1261 109.945C109.911 109.945 122.708 97.1482 122.708 81.3629C122.708 65.5776 109.911 52.7811 94.1261 52.7811C78.3408 52.7811 65.5443 65.5776 65.5443 81.3629C65.5443 97.1482 78.3408 109.945 94.1261 109.945ZM94.1261 98.4464C103.561 98.4464 111.209 90.7978 111.209 81.3629C111.209 71.928 103.561 64.2797 94.1261 64.2797C84.6912 64.2797 77.0426 71.928 77.0426 81.3629C77.0426 90.7978 84.6912 98.4464 94.1261 98.4464ZM96.097 86.9402C98.3939 86.1283 100.04 83.9379 100.04 81.3629C100.04 78.097 97.392 75.4496 94.1261 75.4496C90.8602 75.4496 88.2128 78.097 88.2128 81.3629C88.2128 83.9376 89.8583 86.128 92.1549 86.9398V90.8902H96.097V86.9402Z" fill="#DEAE30"/>
</svg>
