<svg width="60" height="60" viewBox="0 0 60 60" fill="none" xmlns="http://www.w3.org/2000/svg">
<g clip-path="url(#clip0_2011_2332)">
<path d="M60 0H0V60H60V0Z" fill="#0052FF"/>
<path fill-rule="evenodd" clip-rule="evenodd" d="M8.90625 30C8.90625 41.6498 18.3502 51.0938 30 51.0938C41.6498 51.0938 51.0938 41.6498 51.0938 30C51.0938 18.3502 41.6498 8.90625 30 8.90625C18.3502 8.90625 8.90625 18.3502 8.90625 30ZM24.6094 23.2031C23.8327 23.2031 23.2031 23.8327 23.2031 24.6094V35.3906C23.2031 36.1673 23.8327 36.7969 24.6094 36.7969H35.3906C36.1673 36.7969 36.7969 36.1673 36.7969 35.3906V24.6094C36.7969 23.8327 36.1673 23.2031 35.3906 23.2031H24.6094Z" fill="white"/>
</g>
<defs>
<clipPath id="clip0_2011_2332">
<rect width="60" height="60" fill="white"/>
</clipPath>
</defs>
</svg>
