<svg width="128" height="128" viewBox="0 0 128 128" fill="none" xmlns="http://www.w3.org/2000/svg">
<path d="M127.233 35.7395L72.7249 0V19.9822L107.693 42.7046L103.579 55.7218H72.7249V72.2782H103.579L107.693 85.2954L72.7249 108.018V128L127.233 92.3746L118.32 64.0572L127.233 35.7395Z" fill="url(#paint0_linear_15_671)"/>
<path d="M25.3016 72.2782H56.041V55.7218H25.1874L21.1878 42.7046L56.041 19.9822V0L1.53281 35.7395L10.4461 64.0572L1.53281 92.3746L56.1553 128V108.018L21.1878 85.2954L25.3016 72.2782Z" fill="url(#paint1_linear_15_671)"/>
<mask id="mask0_15_671" style="mask-type:alpha" maskUnits="userSpaceOnUse" x="1" y="0" width="127" height="128">
<path d="M127.234 35.7395L72.7253 0V19.9822L107.693 42.7046L103.579 55.7218H72.7253V72.2782H103.579L107.693 85.2954L72.7253 108.018V128L127.234 92.3746L118.32 64.0572L127.234 35.7395Z" fill="url(#paint2_linear_15_671)"/>
<path d="M25.3018 72.2782H56.0414V55.7218H25.1875L21.1879 42.7046L56.0414 19.9822V0L1.53293 35.7395L10.4463 64.0572L1.53293 92.3746L56.1557 128V108.018L21.1879 85.2954L25.3018 72.2782Z" fill="url(#paint3_linear_15_671)"/>
</mask>
<g mask="url(#mask0_15_671)">
<path d="M126.4 0H1.6001V128H126.4V0Z" fill="url(#paint4_linear_15_671)"/>
</g>
<defs>
<linearGradient id="paint0_linear_15_671" x1="109.6" y1="136.8" x2="73.088" y2="-14.0569" gradientUnits="userSpaceOnUse">
<stop stop-color="#0B46F9"/>
<stop offset="1" stop-color="#BBFBE0"/>
</linearGradient>
<linearGradient id="paint1_linear_15_671" x1="109.6" y1="136.8" x2="73.088" y2="-14.0569" gradientUnits="userSpaceOnUse">
<stop stop-color="#0B46F9"/>
<stop offset="1" stop-color="#BBFBE0"/>
</linearGradient>
<linearGradient id="paint2_linear_15_671" x1="109.6" y1="136.8" x2="73.088" y2="-14.0569" gradientUnits="userSpaceOnUse">
<stop stop-color="#0B46F9"/>
<stop offset="1" stop-color="#BBFBE0"/>
</linearGradient>
<linearGradient id="paint3_linear_15_671" x1="109.6" y1="136.8" x2="73.088" y2="-14.0569" gradientUnits="userSpaceOnUse">
<stop stop-color="#0B46F9"/>
<stop offset="1" stop-color="#BBFBE0"/>
</linearGradient>
<linearGradient id="paint4_linear_15_671" x1="9.60008" y1="28.8" x2="72.8" y2="76" gradientUnits="userSpaceOnUse">
<stop offset="0.119792" stop-color="#8952FF" stop-opacity="0.87"/>
<stop offset="1" stop-color="#DABDFF" stop-opacity="0"/>
</linearGradient>
</defs>
</svg>
