<svg width="60" height="60" viewBox="0 0 60 60" fill="none" xmlns="http://www.w3.org/2000/svg">
<g clip-path="url(#clip0_2014_2498)">
<mask id="mask0_2014_2498" style="mask-type:luminance" maskUnits="userSpaceOnUse" x="0" y="0" width="60" height="60">
<path d="M60 0H0V60H60V0Z" fill="white"/>
</mask>
<g mask="url(#mask0_2014_2498)">
<path d="M50.1018 36.3056C50.1018 43.4521 41.3798 46.3563 30.5503 46.3563C19.721 46.3563 10.8721 43.4521 10.8721 36.3056C10.8721 29.1589 19.6574 23.376 30.4869 23.376C41.3161 23.376 50.1018 29.1715 50.1018 36.3056Z" fill="#24A95A"/>
<path d="M48.1098 20.728C48.1098 16.9653 45.0375 13.9097 41.2542 13.9097C39.2869 13.9097 37.5136 14.7369 36.2641 16.0545C36.0705 16.2586 35.7877 16.358 35.5119 16.3023C33.9288 15.9827 32.2541 15.8036 30.5263 15.8036C28.7988 15.8036 27.1242 15.9721 25.5412 16.2995C25.2652 16.3565 24.9811 16.2587 24.7864 16.055C23.5268 14.7371 21.7545 13.9097 19.7985 13.9097C16.0152 13.9097 12.9429 16.9653 12.9429 20.728C12.9429 21.8254 13.2025 22.8533 13.6598 23.7677C13.7693 23.9866 13.7803 24.243 13.6856 24.4687C13.2419 25.5258 13.0063 26.6419 13.0063 27.7988C13.0063 34.4277 20.8522 39.7938 30.5263 39.7938C40.2006 39.7938 48.0465 34.4277 48.0465 27.7988C48.0465 26.6419 47.8109 25.5258 47.367 24.4687C47.2723 24.243 47.2835 23.9866 47.393 23.7677C47.8503 22.8533 48.1098 21.8254 48.1098 20.728Z" fill="#32DA6D"/>
<path d="M19.2389 24.5105C21.5527 24.5105 23.4285 22.645 23.4285 20.3437C23.4285 18.0425 21.5527 16.177 19.2389 16.177C16.925 16.177 15.0493 18.0425 15.0493 20.3437C15.0493 22.645 16.925 24.5105 19.2389 24.5105Z" fill="white"/>
<path d="M41.5899 24.5105C43.9035 24.5105 45.7794 22.645 45.7794 20.3437C45.7794 18.0425 43.9035 16.177 41.5899 16.177C39.2759 16.177 37.4004 18.0425 37.4004 20.3437C37.4004 22.645 39.2759 24.5105 41.5899 24.5105Z" fill="white"/>
<path d="M17.0155 45.8418C17.9169 45.8418 18.6279 45.0589 18.5263 44.1752C18.1582 41.0436 16.5966 34.2633 9.72823 30.1849C2.19906 25.7128 5.78114 37.6027 7.27839 41.9346C7.58125 42.8107 7.23003 43.7838 6.42603 44.245L5.93222 44.5287C5.29745 44.8948 5.56405 45.8418 6.2877 45.8418H17.0155Z" fill="#32DA6D"/>
<path d="M44.3012 45.8419C43.4887 45.8419 42.854 45.059 42.9429 44.1752C43.2602 41.0563 44.6822 34.2633 50.8777 30.1849C57.738 25.6781 54.3989 37.7881 53.0659 42.034C52.8046 42.8668 53.1263 43.7733 53.8636 44.2406L54.3183 44.5287C54.8894 44.8949 54.6483 45.8419 54.001 45.8419H44.3012Z" fill="#32DA6D"/>
<path d="M19.2444 22.8358C20.6248 22.8358 21.7438 21.7168 21.7438 20.3365C21.7438 18.9562 20.6248 17.8372 19.2444 17.8372C17.8641 17.8372 16.7451 18.9562 16.7451 20.3365C16.7451 21.7168 17.8641 22.8358 19.2444 22.8358Z" fill="#092511"/>
<path d="M41.5956 22.8358C42.976 22.8358 44.0946 21.7168 44.0946 20.3365C44.0946 18.9562 42.976 17.8372 41.5956 17.8372C40.2152 17.8372 39.0962 18.9562 39.0962 20.3365C39.0962 21.7168 40.2152 22.8358 41.5956 22.8358Z" fill="#092511"/>
<path d="M36.0721 30.0065C36.6918 30.0598 37.1603 30.6096 37.0041 31.2117C36.878 31.6982 36.6973 32.1703 36.4648 32.6186C36.0589 33.401 35.5029 34.0959 34.8284 34.6635C34.154 35.2311 33.3744 35.6603 32.534 35.9265C31.6938 36.1928 30.8092 36.2911 29.931 36.2156C29.0527 36.1399 28.198 35.8921 27.4155 35.4862C26.633 35.0803 25.9381 34.5243 25.3705 33.8498C24.8029 33.1754 24.3738 32.3958 24.1074 31.5554C23.9169 30.9542 23.8125 30.3304 23.7961 29.7024C23.7853 29.2879 24.1534 28.9812 24.5665 29.0167L30.5063 29.5277L36.0721 30.0065Z" fill="#092511"/>
</g>
</g>
<defs>
<clipPath id="clip0_2014_2498">
<rect width="60" height="60" fill="white"/>
</clipPath>
</defs>
</svg>
