<svg width="60" height="60" viewBox="0 0 60 60" fill="none" xmlns="http://www.w3.org/2000/svg">
<g clip-path="url(#clip0_2006_337)">
<path d="M42.846 21.6817L46.3594 25.8113C46.7644 26.2752 47.1175 26.6559 47.2664 26.874C48.3187 27.9194 48.9071 29.3282 48.9071 30.7994C48.8102 32.5371 47.6748 33.7174 46.6329 34.9844L44.1752 37.8713L42.891 39.3667C42.846 39.4186 42.8148 39.4809 42.8045 39.5501C42.7941 39.6194 42.8044 39.6886 42.8356 39.7509C42.8633 39.8132 42.9118 39.8651 42.9741 39.9032C43.0364 39.9413 43.1056 39.9551 43.1748 39.9517H55.9963C57.9521 39.9517 60.4202 41.5994 60.2783 44.0951C60.2783 45.227 59.8144 46.3174 59.001 47.1205C58.184 47.9236 57.0798 48.377 55.9306 48.3805H35.8537C34.5314 48.3805 30.9799 48.5224 29.9864 45.4936C29.7752 44.8601 29.7476 44.1817 29.9033 43.5309C30.1941 42.572 30.651 41.672 31.2533 40.869C32.2641 39.3736 33.3579 37.8747 34.4345 36.4244C35.826 34.524 37.2522 32.6859 38.6541 30.7475C38.7025 30.6851 38.7302 30.6055 38.7302 30.5259C38.7302 30.4463 38.7025 30.3667 38.6541 30.3044L33.5518 24.3194C33.5206 24.2744 33.4756 24.2432 33.4237 24.219C33.3752 24.1948 33.3233 24.1809 33.2645 24.1809C33.2056 24.1809 33.1537 24.1948 33.1052 24.219C33.0568 24.2432 33.0118 24.2813 32.9772 24.3194C31.6099 26.1367 25.6283 34.1882 24.3545 35.8186C23.0806 37.449 19.9376 37.539 18.1964 35.8186L10.2176 27.9228C10.1691 27.8744 10.1034 27.8363 10.0307 27.8259C9.96144 27.8121 9.88874 27.819 9.81951 27.8467C9.75375 27.8744 9.69836 27.9194 9.65682 27.9817C9.61528 28.044 9.59451 28.1132 9.59451 28.1825V43.3578C9.61528 44.4343 9.2899 45.4901 8.67029 46.3797C8.05067 47.2659 7.16106 47.9409 6.13298 48.3043C5.47529 48.5293 4.77606 48.5986 4.08722 48.5016C3.39837 48.4047 2.74068 48.1486 2.17645 47.7505C1.60876 47.3559 1.14492 46.8297 0.826455 46.2205C0.507994 45.6113 0.338379 44.9363 0.338379 44.2509V16.9636C0.383379 15.9806 0.743378 15.0356 1.36645 14.2636C1.98261 13.4917 2.83414 12.9344 3.79645 12.6713C4.62029 12.4567 5.48914 12.4567 6.31298 12.6783C7.13683 12.8998 7.88798 13.329 8.48682 13.9313L20.751 26.0328C20.7891 26.0709 20.8341 26.0986 20.8826 26.1159C20.931 26.1332 20.983 26.1402 21.0383 26.1367C21.0903 26.1332 21.1387 26.1159 21.1837 26.0917C21.2287 26.0675 21.2703 26.0294 21.298 25.9913L30.0106 14.0975C30.4156 13.6163 30.921 13.2252 31.4922 12.9552C32.0633 12.6852 32.6864 12.5433 33.3233 12.5363H55.9894C56.609 12.5363 57.2217 12.6713 57.786 12.924C58.3502 13.1767 58.8556 13.5471 59.2606 14.0075C59.669 14.4679 59.9736 15.0113 60.1536 15.5929C60.3336 16.1813 60.3821 16.794 60.299 17.3998C60.1398 18.4521 59.5963 19.4109 58.7725 20.0963C57.9487 20.7852 56.9033 21.1556 55.8233 21.1417H43.1298C43.0641 21.1417 43.0018 21.1625 42.9498 21.1936C42.8979 21.2248 42.8529 21.2767 42.8218 21.3286C42.7941 21.384 42.7768 21.4463 42.7802 21.5086C42.7802 21.5709 42.8045 21.6298 42.8425 21.6852H42.8391L42.846 21.6817Z" fill="url(#paint0_linear_2006_337)"/>
</g>
<defs>
<linearGradient id="paint0_linear_2006_337" x1="-9.62737" y1="7.46519" x2="57.6717" y2="46.3209" gradientUnits="userSpaceOnUse">
<stop offset="0.23" stop-color="#FF0075"/>
<stop offset="0.27" stop-color="#FF0569"/>
<stop offset="0.34" stop-color="#FF1349"/>
<stop offset="0.41" stop-color="#FF2228"/>
<stop offset="0.51" stop-color="#FF4A15"/>
<stop offset="0.61" stop-color="#FF6C05"/>
<stop offset="0.66" stop-color="#FF7900"/>
<stop offset="0.7" stop-color="#FF880C"/>
<stop offset="0.82" stop-color="#FFAC2B"/>
<stop offset="0.92" stop-color="#FFC23E"/>
<stop offset="0.98" stop-color="#FFCB45"/>
</linearGradient>
<clipPath id="clip0_2006_337">
<rect width="60" height="60" fill="white"/>
</clipPath>
</defs>
</svg>
