<svg width="60" height="60" viewBox="0 0 60 60" fill="none" xmlns="http://www.w3.org/2000/svg">
<path d="M50.2204 29.9688L52.3721 27.4429L51.4366 26.7568L52.9335 25.3846L51.7796 24.5115L53.2765 23.3888L52.3098 22.6404L53.869 15.0312L51.499 7.9834M51.499 7.9834L36.2807 13.6279H23.5884L8.37006 7.9834L6 15.0312L7.59044 22.6404L6.59252 23.3888L8.12058 24.5115L6.96674 25.3846L8.46362 26.7568L7.52807 27.4429L9.67983 29.9688L6.40541 40.0728L9.43035 50.395L20.0645 47.4636L22.1227 49.1476L26.3326 52.0167H33.5364L37.7464 49.1476L39.8046 47.4636L50.4699 50.395L53.526 40.0728L50.2204 29.9688" fill="#F5841F"/>
<path d="M51.4992 7.9834L32.8193 21.736L36.2809 13.6279L51.4992 7.9834Z" fill="#E27625"/>
<path d="M8.37012 7.9834L26.894 21.8607L23.5884 13.6279L8.37012 7.9834Z" fill="#E27625"/>
<path d="M44.7943 39.8857L39.8047 47.4325L50.47 50.3639L53.5261 40.0417L44.7943 39.8857Z" fill="#E27625"/>
<path d="M6.40527 40.0417L9.43022 50.3639L20.0643 47.4325L15.1059 39.8857L6.40527 40.0417Z" fill="#E27625"/>
<path d="M19.5031 27.0998L16.5405 31.5592L27.0811 32.027L26.738 20.738L19.5031 27.0998Z" fill="#E27625"/>
<path d="M40.3973 27.0998L33.0376 20.6133L32.8193 32.027L43.3599 31.5592L40.3973 27.0998Z" fill="#E27625"/>
<path d="M20.0645 47.4326L26.4574 44.3764L20.9376 40.1353L20.0645 47.4326Z" fill="#E27625"/>
<path d="M33.4429 44.3764L39.8046 47.4326L38.9314 40.1353L33.4429 44.3764Z" fill="#E27625"/>
<path d="M39.8046 47.4324L33.4429 44.3762L33.973 48.4926L33.9106 50.239L39.8046 47.4324Z" fill="#D7C1B3"/>
<path d="M20.0645 47.4324L25.9896 50.239L25.9584 48.4926L26.4574 44.3762L20.0645 47.4324Z" fill="#D7C1B3"/>
<path d="M26.0833 37.3909L20.813 35.8629L24.5552 34.1477L26.0833 37.3909Z" fill="#2F343B"/>
<path d="M33.7856 37.3909L35.3449 34.1477L39.0871 35.8629L33.7856 37.3909Z" fill="#2F343B"/>
<path d="M20.0644 47.4325L20.9999 39.8857L15.106 40.0417L20.0644 47.4325Z" fill="#CC6228"/>
<path d="M38.9004 39.8857L39.8048 47.4325L44.7944 40.0417L38.9004 39.8857Z" fill="#CC6228"/>
<path d="M43.3599 31.5593L32.8193 32.0271L33.7861 37.3909L35.3453 34.1477L39.0875 35.8629L43.3599 31.5593Z" fill="#CC6228"/>
<path d="M20.8129 35.8629L24.5551 34.1477L26.0831 37.3909L27.0811 32.0271L16.5405 31.5593L20.8129 35.8629Z" fill="#CC6228"/>
<path d="M16.5405 31.5593L20.9376 40.1352L20.8129 35.8629L16.5405 31.5593Z" fill="#E27625"/>
<path d="M39.0871 35.8629L38.9312 40.1352L43.3594 31.5593L39.0871 35.8629Z" fill="#E27625"/>
<path d="M27.0809 32.0271L26.083 37.3909L27.3304 43.7527L27.6111 35.3951L27.0809 32.0271Z" fill="#E27625"/>
<path d="M32.8192 32.0271L32.2891 35.3639L32.5385 43.7527L33.7859 37.3909L32.8192 32.0271Z" fill="#E27625"/>
<path d="M33.786 37.3909L32.5386 43.7526L33.4429 44.3763L38.9315 40.1351L39.0874 35.8628L33.786 37.3909Z" fill="#F5841F"/>
<path d="M20.813 35.8628L20.9377 40.1351L26.4575 44.3763L27.3307 43.7526L26.0833 37.3909L20.813 35.8628Z" fill="#F5841F"/>
<path d="M33.9106 50.239L33.973 48.4927L33.474 48.0873H26.395L25.9584 48.4927L25.9896 50.239L20.0645 47.4324L22.1227 49.1164L26.3326 52.0166H33.5364L37.7464 49.1164L39.8046 47.4324L33.9106 50.239Z" fill="#C0AD9E"/>
<path d="M33.4429 44.3764L32.5385 43.7527H27.3306L26.4575 44.3764L25.9585 48.4928L26.3951 48.0874H33.4741L33.9731 48.4928L33.4429 44.3764Z" fill="#2F343B"/>
<path d="M52.3098 22.6404L53.8691 15.0312L51.499 7.9834L33.4429 21.2682L40.3971 27.0998L50.2204 29.9688L52.3722 27.4429L51.4366 26.7568L52.9335 25.4158L51.7797 24.5115L53.2766 23.3888L52.3098 22.6404Z" fill="#763E1A"/>
<path d="M6 15.0312L7.59044 22.6404L6.59252 23.3888L8.0894 24.5427L6.93555 25.4158L8.43243 26.7568L7.49688 27.4429L9.67983 29.9688L19.5031 27.0998L26.4574 21.2682L8.37006 7.9834L6 15.0312Z" fill="#763E1A"/>
<path d="M50.2201 29.9689L40.3968 27.0999L43.3594 31.5593L38.9312 40.1352L44.7939 40.0416H53.5257L50.2201 29.9689Z" fill="#F5841F"/>
<path d="M19.503 27.0999L9.6797 29.9689L6.40527 40.0416H15.1059L20.9375 40.1352L16.5404 31.5593L19.503 27.0999Z" fill="#F5841F"/>
<path d="M32.8191 32.0271L33.4428 21.2683L36.2807 13.6279H23.5884L26.4574 21.2683L27.0811 32.0271L27.3306 35.3951V43.7527H32.5385L32.5697 35.3951L32.8191 32.0271Z" fill="#F5841F"/>
</svg>
