<svg width="60" height="60" viewBox="0 0 60 60" fill="none" xmlns="http://www.w3.org/2000/svg">
<path d="M6.25 2.323L14.8313 10.9001C18.3075 8.11771 22.4904 6.35913 26.9105 5.82168C31.3306 5.28423 35.813 5.98917 39.8548 7.85741C43.8965 9.72565 47.3377 12.6833 49.7921 16.3983C52.2465 20.1134 53.6171 24.439 53.75 28.8897V29.5834V57.6772L45.1687 49.1022C41.6924 51.8815 37.5105 53.6376 33.092 54.1734C28.6735 54.7092 24.1931 54.0036 20.1532 52.1357C16.1133 50.2678 12.6735 47.3114 10.2197 43.5981C7.76578 39.8848 6.39479 35.5614 6.26042 31.1126L6.25 30.4167V2.323ZM12.1187 16.4897V30.4167C12.1213 33.6929 13.0139 36.9067 14.7012 39.7149C16.3885 42.5231 18.8071 44.8202 21.6985 46.3605C24.5899 47.9009 27.8455 48.6268 31.1174 48.4605C34.3893 48.2943 37.5546 47.2422 40.275 45.4167L40.7396 45.0938L13.2646 17.6355L12.1187 16.4897ZM19.725 14.5834L19.2604 14.9063L46.7354 42.3667L47.8812 43.5126V29.5834C47.8787 26.3073 46.986 23.0934 45.2988 20.2852C43.6115 17.477 41.1929 15.18 38.3015 13.6396C35.4101 12.0993 32.1545 11.3734 28.8826 11.5396C25.6107 11.7059 22.4454 12.7579 19.725 14.5834Z" fill="black"/>
</svg>
