<svg width="60" height="60" viewBox="0 0 60 60" fill="none" xmlns="http://www.w3.org/2000/svg">
<path d="M7.08816 54.882C14.7323 54.882 20.4769 48.2341 23.9052 42.9809C23.4882 44.1432 23.2565 45.3053 23.2565 46.421C23.2565 49.4893 25.0171 51.6742 28.4916 51.6742C33.2634 51.6742 38.3594 47.4903 41.0001 42.9809C40.8148 43.6318 40.7222 44.2362 40.7222 44.794C40.7222 46.9324 41.9266 48.2806 44.3821 48.2806C52.1189 48.2806 59.9019 34.5665 59.9019 22.5726C59.9019 13.2284 55.1764 5 43.3166 5C22.469 5 0 30.4756 0 46.9324C0 53.3943 3.47459 54.882 7.08816 54.882ZM36.1357 21.5499C36.1357 19.2255 37.4329 17.5984 39.3323 17.5984C41.1854 17.5984 42.4826 19.2255 42.4826 21.5499C42.4826 23.8743 41.1854 25.5478 39.3323 25.5478C37.4329 25.5478 36.1357 23.8743 36.1357 21.5499ZM46.0499 21.5499C46.0499 19.2255 47.3471 17.5984 49.2464 17.5984C51.0996 17.5984 52.3968 19.2255 52.3968 21.5499C52.3968 23.8743 51.0996 25.5478 49.2464 25.5478C47.3471 25.5478 46.0499 23.8743 46.0499 21.5499Z" fill="#AB9FF2"/>
</svg>
