<svg width="60" height="60" viewBox="0 0 60 60" fill="none" xmlns="http://www.w3.org/2000/svg">
<path d="M48.2469 29.9954H43.7668C42.4246 29.9954 41.3454 31.0838 41.3454 32.4171V38.9205C41.3454 40.2629 40.2572 41.3423 38.924 41.3423H21.0855C19.7433 41.3423 18.6641 42.4307 18.6641 43.7641V48.2539C18.6641 49.5963 19.7523 50.6756 21.0855 50.6756H39.9488C41.291 50.6756 42.3521 49.5872 42.3521 48.2539V44.662C42.3521 43.3196 43.4404 42.3763 44.7735 42.3763H48.2469C49.5891 42.3763 50.6683 41.2879 50.6683 39.9545V32.399C50.6683 31.0475 49.58 29.9954 48.2469 29.9954Z" fill="black"/>
<path d="M18.6637 21.0883C18.6637 19.7459 19.7519 18.6665 21.0851 18.6665H38.9055C40.2477 18.6665 41.3269 17.5781 41.3269 16.2448V11.7641C41.3269 10.4216 40.2386 9.34229 38.9055 9.34229H20.0512C18.709 9.34229 17.6298 10.4307 17.6298 11.7641V15.2198C17.6298 16.5622 16.5415 17.6416 15.2084 17.6416H11.7622C10.42 17.6416 9.34082 18.73 9.34082 20.0634V27.628C9.34082 28.9704 10.4291 29.9953 11.7713 29.9953H16.2513C17.5935 29.9953 18.6727 28.9069 18.6727 27.5736L18.6637 21.0883Z" fill="black"/>
<path d="M27.887 25.2881H32.1947C33.6004 25.2881 34.734 26.4309 34.734 27.8278V32.1362C34.734 33.5421 33.5913 34.6758 32.1947 34.6758H27.887C26.4813 34.6758 25.3477 33.533 25.3477 32.1362V27.8278C25.3477 26.4219 26.4903 25.2881 27.887 25.2881Z" fill="black"/>
</svg>
