<svg width="128" height="128" viewBox="0 0 128 128" fill="none" xmlns="http://www.w3.org/2000/svg">
<path d="M64.4372 122.651C65.7812 122.651 66.871 123.728 66.871 125.058C66.871 126.387 65.7812 127.465 64.4372 127.465C63.0932 127.465 62.0035 126.387 62.0035 125.058C62.0035 123.728 63.0932 122.651 64.4372 122.651ZM61.7933 7.66656C62.9827 7.76476 63.9432 8.66598 64.1042 9.83439L66.9988 30.8667C67.9711 37.8153 76.3517 40.8261 81.525 36.1042L110.527 9.70655C111.227 9.0698 112.317 9.11393 112.961 9.80513C113.552 10.4393 113.57 11.4102 113.002 12.065L87.712 41.2383C83.0561 46.5994 86.4914 54.9709 93.5887 55.5686L115.904 57.7198C117.015 57.8268 117.828 58.8037 117.72 59.902C117.63 60.8074 116.933 61.5391 116.023 61.6809L92.5747 65.3422C85.7669 66.2702 82.6839 74.3322 87.1119 79.5697L95.3551 89.2877C96.0192 90.0705 95.9153 91.2371 95.1227 91.8933C94.4515 92.4493 93.4794 92.4708 92.7834 91.9452L82.6217 84.2709C77.1379 80.1469 69.2337 83.6521 68.6541 90.4771L66.4148 117.095C66.3222 118.194 65.3453 119.012 64.2324 118.92C63.2878 118.843 62.5247 118.127 62.3967 117.2L58.8457 91.4877C57.8941 84.5389 49.5135 81.5283 44.3195 86.2503L13.4665 114.344C12.8279 114.925 11.833 114.885 11.2444 114.254C10.7044 113.675 10.688 112.789 11.2062 112.191L38.1327 81.1162C42.7886 75.755 39.3741 67.3833 32.2765 66.7858L9.95656 64.6341C8.84518 64.5271 8.03215 63.55 8.14059 62.452C8.23002 61.5465 8.92751 60.8151 9.83711 60.6728L33.2698 57.0122C40.0778 56.0842 43.1816 48.0223 38.7535 42.7848L33.142 36.1695C32.3185 35.1987 32.4475 33.7521 33.4303 32.9385C34.263 32.2488 35.4688 32.2225 36.3318 32.8748L43.2228 38.0836C48.7066 42.2075 56.6108 38.7023 57.1904 31.8774L59.0441 9.96383C59.1611 8.57938 60.3919 7.55085 61.7933 7.66656ZM2.43372 59.9921C3.77782 59.9921 4.86743 61.0698 4.86743 62.3992C4.86743 63.7286 3.77782 64.8064 2.43372 64.8064C1.08961 64.8064 0 63.7286 0 62.3992C0 61.0698 1.08961 59.9921 2.43372 59.9921ZM124.494 57.548C125.838 57.548 126.928 58.6258 126.928 59.9552C126.928 61.2846 125.838 62.3621 124.494 62.3621C123.15 62.3621 122.06 61.2846 122.06 59.9552C122.06 58.6258 123.15 57.548 124.494 57.548ZM61.442 0C62.786 0 63.8756 1.07769 63.8756 2.40709C63.8756 3.7365 62.786 4.81418 61.442 4.81418C60.0978 4.81418 59.0083 3.7365 59.0083 2.40709C59.0083 1.07769 60.0978 0 61.442 0Z" fill="url(#paint0_linear_15_667)"/>
<path d="M62.9018 83.9148C75.5983 83.9148 85.8911 73.7349 85.8911 61.1771C85.8911 48.6196 75.5983 38.4395 62.9018 38.4395C50.2052 38.4395 39.9124 48.6196 39.9124 61.1771C39.9124 73.7349 50.2052 83.9148 62.9018 83.9148Z" fill="url(#paint1_radial_15_667)"/>
<defs>
<linearGradient id="paint0_linear_15_667" x1="16.5846" y1="20.2752" x2="89.3714" y2="86.1678" gradientUnits="userSpaceOnUse">
<stop stop-color="#FFC10B"/>
<stop offset="1" stop-color="#FB3F2E"/>
</linearGradient>
<radialGradient id="paint1_radial_15_667" cx="0" cy="0" r="1" gradientUnits="userSpaceOnUse" gradientTransform="translate(57.6517 52.7829) rotate(67.5196) scale(33.4234 33.7482)">
<stop stop-color="#FFC10B"/>
<stop offset="1" stop-color="#FB3F2E"/>
</radialGradient>
</defs>
</svg>
