<svg width="60" height="60" viewBox="0 0 60 60" fill="none" xmlns="http://www.w3.org/2000/svg">
<g clip-path="url(#clip0_2023_1763)">
<path d="M30 60C46.5685 60 60 46.5685 60 30C60 13.4315 46.5685 0 30 0C13.4315 0 0 13.4315 0 30C0 46.5685 13.4315 60 30 60Z" fill="#0364FF"/>
<path fill-rule="evenodd" clip-rule="evenodd" d="M20.0971 17.801C18.6633 17.801 17.501 18.9634 17.501 20.3972V23.4215C17.501 24.8554 18.6633 26.0177 20.0971 26.0177H24.6905V42.9361C24.6905 44.3699 25.8528 45.5323 27.2866 45.5323H30.311C31.7447 45.5323 32.9071 44.3699 32.9071 42.9361V23.4435C32.9071 23.4362 32.9072 23.4289 32.9072 23.4215V20.3972C32.9072 18.9634 31.7449 17.801 30.3111 17.801H27.2866H20.0971Z" fill="white"/>
<path d="M39.0707 26.0177C41.3397 26.0177 43.1791 24.1784 43.1791 21.9094C43.1791 19.6404 41.3397 17.801 39.0707 17.801C36.8017 17.801 34.9624 19.6404 34.9624 21.9094C34.9624 24.1784 36.8017 26.0177 39.0707 26.0177Z" fill="white"/>
</g>
<defs>
<clipPath id="clip0_2023_1763">
<rect width="60" height="60" fill="white"/>
</clipPath>
</defs>
</svg>
