<svg width="60" height="60" viewBox="0 0 60 60" fill="none" xmlns="http://www.w3.org/2000/svg">
<g clip-path="url(#clip0_2007_1265)">
<mask id="mask0_2007_1265" style="mask-type:luminance" maskUnits="userSpaceOnUse" x="0" y="0" width="60" height="60">
<path d="M0 0H60V60H0V0Z" fill="white"/>
</mask>
<g mask="url(#mask0_2007_1265)">
<path d="M30.0002 59.9249C46.5273 59.9249 59.9252 46.5271 59.9252 29.9999C59.9252 13.4728 46.5273 0.0749512 30.0002 0.0749512C13.4731 0.0749512 0.0751953 13.4728 0.0751953 29.9999C0.0751953 46.5271 13.4731 59.9249 30.0002 59.9249Z" fill="#3396FF" stroke="#66B1FF" stroke-width="0.15"/>
<path d="M18.3782 22.3447C24.7968 16.0853 35.2038 16.0853 41.6225 22.3447L42.395 23.098C42.716 23.4109 42.716 23.9183 42.395 24.2312L39.7524 26.8082C39.5919 26.9647 39.3318 26.9647 39.1713 26.8082L38.1083 25.7716C33.6303 21.4049 26.3703 21.4049 21.8924 25.7716L20.7539 26.8817C20.5934 27.0382 20.3333 27.0382 20.1728 26.8817L17.5302 24.3047C17.2092 23.9918 17.2092 23.4844 17.5302 23.1715L18.3782 22.3447ZM47.0877 27.674L49.4396 29.9675C49.7606 30.2804 49.7606 30.7879 49.4396 31.1008L38.8346 41.4424C38.5137 41.7554 37.9934 41.7554 37.6724 41.4424L30.1457 34.1027C30.0654 34.0244 29.9354 34.0244 29.8551 34.1027L22.3284 41.4424C22.0076 41.7554 21.4872 41.7554 21.1662 41.4424L10.561 31.1006C10.2401 30.7877 10.2401 30.2803 10.561 29.9674L12.9129 27.6739C13.2339 27.361 13.7542 27.361 14.0752 27.6739L21.602 35.0137C21.6822 35.092 21.8123 35.092 21.8925 35.0137L29.4191 27.6739C29.7399 27.3608 30.2603 27.3608 30.5813 27.6739L38.1081 35.0137C38.1884 35.092 38.3184 35.092 38.3987 35.0137L45.9255 27.674C46.2464 27.361 46.7667 27.361 47.0877 27.674Z" fill="white"/>
</g>
</g>
<defs>
<clipPath id="clip0_2007_1265">
<rect width="60" height="60" fill="white"/>
</clipPath>
</defs>
</svg>
