<svg width="60" height="60" viewBox="0 0 60 60" fill="none" xmlns="http://www.w3.org/2000/svg">
<path fill-rule="evenodd" clip-rule="evenodd" d="M27.5213 45.7892C27.4119 46.1976 27.7196 46.5987 28.1425 46.5987H31.8459C32.2687 46.5987 32.5765 46.1976 32.467 45.7892L30.6153 38.8785C30.445 38.243 29.5433 38.243 29.373 38.8785L27.5213 45.7892Z" fill="#0364FF"/>
<path fill-rule="evenodd" clip-rule="evenodd" d="M23.834 50.2123C23.5504 51.2707 22.5912 52.0067 21.4955 52.0067H16.4828C14.8909 52.0067 13.7324 50.4968 14.1444 48.9592L24.4277 10.5813C24.7379 9.42365 25.7869 8.61865 26.9854 8.61865H32.9511C34.1496 8.61865 35.1986 9.42365 35.5088 10.5813L45.7921 48.9592C46.2041 50.4968 45.0455 52.0067 43.4537 52.0067H38.4409C37.3452 52.0067 36.3861 51.2707 36.1025 50.2123L31.1009 31.5462C30.7904 30.3874 29.1461 30.3874 28.8356 31.5462L23.834 50.2123Z" fill="#0364FF"/>
<path fill-rule="evenodd" clip-rule="evenodd" d="M49.0484 42.9802C48.7279 44.1763 47.0304 44.1763 46.7099 42.9802L42.9766 29.0473C42.9044 28.7779 42.9044 28.4942 42.9766 28.2248L47.7344 10.4686C48.0269 9.3771 49.016 8.61816 50.1459 8.61816H55.002C56.6436 8.61816 57.8384 10.1753 57.4136 11.761L49.0484 42.9802ZM17.0171 29.024C17.0893 28.7547 17.0893 28.471 17.0171 28.2016L12.2656 10.4686C11.9731 9.3771 10.984 8.61816 9.85406 8.61816H4.99798C3.35639 8.61816 2.16157 10.1753 2.58644 11.761L10.9454 42.9569C11.2659 44.1531 12.9633 44.1531 13.2838 42.9569L17.0171 29.024Z" fill="#0364FF"/>
</svg>
