<svg width="60" height="60" viewBox="0 0 60 60" fill="none" xmlns="http://www.w3.org/2000/svg">
<g clip-path="url(#clip0_2017_2607)">
<mask id="mask0_2017_2607" style="mask-type:luminance" maskUnits="userSpaceOnUse" x="0" y="0" width="60" height="60">
<path d="M60 0H0V60H60V0Z" fill="white"/>
</mask>
<g mask="url(#mask0_2017_2607)">
<path d="M43.034 60H16.9661C7.59784 60 0 52.4056 0 43.034V16.9661C0 7.59784 7.5944 0 16.9661 0H43.034C52.4022 0 60 7.59443 60 16.9661V43.034C60 52.4056 52.4022 60 43.034 60Z" fill="#2461ED"/>
<path fill-rule="evenodd" clip-rule="evenodd" d="M34.3179 29.2021C28.4359 26.0235 21.279 21.9016 15.8925 18.5418C14.3032 17.3969 15.1098 14.9668 17.0306 14.9668H43.683C45.1697 14.9668 46.1641 16.6245 45.4192 17.8788C43.6281 20.9719 41.0137 24.899 38.8295 28.0127C37.6571 29.684 35.7466 29.9711 34.3179 29.2021ZM25.7393 30.2342C31.4266 33.2658 39.3971 37.8765 45.0603 41.3626C46.8101 42.4426 46.113 45.0335 44.0692 45.0335C40.7246 45.0335 35.2898 45.0342 29.8834 45.0352C24.5327 45.0359 19.2097 45.0369 15.9677 45.0369C14.334 45.0369 13.4966 43.3416 14.1904 42.159C16.5351 38.1635 19.1702 34.1306 21.361 31.1194C22.3351 29.7762 24.3175 29.4754 25.7393 30.2342Z" fill="white"/>
</g>
</g>
<defs>
<clipPath id="clip0_2017_2607">
<rect width="60" height="60" fill="white"/>
</clipPath>
</defs>
</svg>
