<svg width="235" height="229" viewBox="0 0 235 229" fill="none" xmlns="http://www.w3.org/2000/svg">
<path d="M81.6982 3.40589C92.2946 -1.13524 104.289 -1.13535 114.886 3.40589L188.073 34.7721C193.236 36.9848 196.583 42.0615 196.583 47.6783V121.438C196.583 148.647 183.443 174.18 161.303 189.995L114.615 223.343C104.851 230.318 91.7332 230.318 81.9688 223.343L35.2803 189.995C13.1401 174.18 9.77221e-05 148.646 0 121.438V47.6783C0.000123348 42.0614 3.34794 36.9847 8.51074 34.7721L81.6982 3.40589ZM38.4863 159.146C36.1904 157.612 33.0849 158.23 31.5508 160.526C30.017 162.822 30.634 165.927 32.9297 167.462L94.668 208.71L97.2754 210.452L99.9785 208.863L116.54 199.13C118.921 197.731 119.716 194.667 118.317 192.287C116.918 189.906 113.855 189.111 111.475 190.509L97.6172 198.654L38.4863 159.146ZM61.3809 55.6217C58.6682 55.3766 56.0356 56.6224 54.5039 58.8746L29.0039 96.3746C26.6751 99.7997 27.5635 104.464 30.9883 106.794C34.4135 109.123 39.0791 108.234 41.4082 104.809L59.3164 78.4752L84.8477 136.129C85.9023 138.51 88.1174 140.174 90.6982 140.524C93.2792 140.874 95.8573 139.859 97.5078 137.844L129.144 99.2252L156.715 146.849C158.79 150.434 163.378 151.658 166.963 149.583C170.547 147.507 171.771 142.919 169.696 139.335L136.696 82.3346C135.463 80.2049 133.263 78.8154 130.811 78.6168C128.358 78.4185 125.963 79.4351 124.403 81.3385L93.6279 118.91L67.5635 60.0553C66.4605 57.5648 64.0936 55.8669 61.3809 55.6217Z" fill="#FAFAFA"/>
<path d="M208 7.00029C222.912 7.00029 235 19.0886 235 34.0003C235 48.912 222.912 61.0003 208 61.0003C193.088 61.0003 181 48.912 181 34.0003C181 19.0886 193.088 7.00029 208 7.00029ZM195.5 30.0003C193.015 30.0003 191 32.015 191 34.5003C191 36.9856 193.015 39.0003 195.5 39.0003H220.5C222.985 39.0003 225 36.9856 225 34.5003C225 32.015 222.985 30.0003 220.5 30.0003H195.5Z" fill="#FF0000"/>
</svg>
