<svg width="235" height="229" viewBox="0 0 235 229" fill="none" xmlns="http://www.w3.org/2000/svg">
<path d="M81.6982 3.40594C92.2947 -1.13528 104.289 -1.13537 114.886 3.40594L188.073 34.7722C193.236 36.9849 196.583 42.0615 196.583 47.6784V121.437C196.583 148.646 183.443 174.18 161.303 189.995L114.615 223.343C104.851 230.318 91.7332 230.318 81.9688 223.343L35.2803 189.995C13.1398 174.18 9.27681e-06 148.646 0 121.437V47.6784C0 42.0613 3.34785 36.9848 8.51074 34.7722L81.6982 3.40594ZM43.9209 156.353C41.993 154.542 38.9613 154.542 37.0332 156.396C35.0434 158.31 34.9824 161.475 36.8965 163.466L39.7188 160.752C37.0401 163.328 36.9041 163.46 36.8975 163.466L36.9004 163.47C36.9027 163.473 36.9069 163.477 36.9111 163.481C36.9197 163.49 36.9324 163.503 36.9482 163.519C36.9804 163.553 37.0277 163.601 37.0889 163.665C37.2119 163.792 37.3923 163.979 37.625 164.217C38.0907 164.695 38.7663 165.386 39.6123 166.241C41.304 167.951 43.6815 170.324 46.4258 172.982C51.8768 178.261 58.9174 184.798 64.9424 189.456C70.5767 193.811 78.1223 198.687 84.1562 202.42C87.1941 204.299 89.8886 205.913 91.8242 207.057C92.7922 207.63 93.5721 208.085 94.1113 208.399C94.3807 208.556 94.5902 208.678 94.7334 208.76C94.805 208.802 94.8608 208.834 94.8984 208.855C94.917 208.866 94.9315 208.874 94.9414 208.88C94.9464 208.882 94.9504 208.885 94.9531 208.886C94.9544 208.887 94.9563 208.888 94.957 208.888H94.958V208.889L97.4766 210.334L99.9785 208.863L116.54 199.13C118.921 197.73 119.716 194.667 118.317 192.287C116.918 189.906 113.855 189.11 111.475 190.508L97.4395 198.758C97.2717 198.66 97.0951 198.557 96.9131 198.449C95.0209 197.33 92.3856 195.751 89.417 193.915C83.4373 190.216 76.2595 185.565 71.0576 181.544C65.4952 177.244 58.7857 171.03 53.3838 165.799C50.7017 163.201 48.3755 160.879 46.7217 159.208C45.8952 158.372 45.2368 157.7 44.7871 157.239C44.5624 157.008 44.3901 156.829 44.2744 156.71C44.2169 156.65 44.1732 156.606 44.1445 156.576C44.1302 156.561 44.1191 156.55 44.1123 156.543C44.1091 156.539 44.106 156.537 44.1045 156.536L44.1035 156.534L43.9209 156.353ZM61.3809 55.6218C58.6682 55.3766 56.0356 56.6216 54.5039 58.8737L29.0039 96.3747C26.6751 99.7998 27.5634 104.464 30.9883 106.794C34.4135 109.123 39.0791 108.234 41.4082 104.809L59.3164 78.4753L84.8477 136.128C85.9023 138.509 88.1174 140.173 90.6982 140.523C93.2792 140.873 95.8573 139.859 97.5078 137.844L129.144 99.2253L156.715 146.849C158.79 150.434 163.378 151.658 166.963 149.583C170.548 147.507 171.771 142.918 169.696 139.334L136.696 82.3337C135.463 80.2041 133.263 78.8155 130.811 78.6169C128.358 78.4185 125.963 79.435 124.403 81.3386L93.6279 118.91L67.5635 60.0544C66.4605 57.5639 64.0936 55.867 61.3809 55.6218Z" fill="url(#paint0_linear_4_52)"/>
<path d="M208 6.99974C222.912 6.99974 235 19.0881 235 33.9997C235 48.9114 222.912 60.9997 208 60.9997C193.088 60.9997 181 48.9114 181 33.9997C181 19.0881 193.088 6.99974 208 6.99974ZM195.5 29.9997C193.015 29.9997 191 32.0145 191 34.4997C191 36.985 193.015 38.9997 195.5 38.9997H220.5C222.985 38.9997 225 36.985 225 34.4997C225 32.0145 222.985 29.9997 220.5 29.9997H195.5Z" fill="#FF0000"/>
<defs>
<linearGradient id="paint0_linear_4_52" x1="98.2915" y1="-0.000305176" x2="98.2915" y2="228.574" gradientUnits="userSpaceOnUse">
<stop stop-color="#6FB3F3"/>
<stop offset="0.533654" stop-color="#6490D8"/>
<stop offset="1" stop-color="#5640B6"/>
</linearGradient>
</defs>
</svg>
